Coordinates
version=1
nRows=14
nColumns=36
inDegrees=yes

Units are S.I. units (second, meters, Newtons, ...)
If the header above contains a line with 'inDegrees', this indicates whether rotational values are in degrees (yes) or radians (no).

endheader
time	pelvis_tilt	pelvis_list	pelvis_rotation	pelvis_tx	pelvis_ty	pelvis_tz	hip_flexion_r	hip_adduction_r	hip_rotation_r	knee_angle_r	knee_angle_r_beta	ankle_angle_r	subtalar_angle_r	mtp_angle_r	hip_flexion_l	hip_adduction_l	hip_rotation_l	knee_angle_l	knee_angle_l_beta	ankle_angle_l	subtalar_angle_l	mtp_angle_l	lumbar_extension	lumbar_bending	lumbar_rotation	arm_flex_r	arm_add_r	arm_rot_r	elbow_flex_r	pro_sup_r	arm_flex_l	arm_add_l	arm_rot_l	elbow_flex_l	pro_sup_l
      6.68000000	     -5.53208814	      1.54938944	     -1.13869383	     -0.27197530	      1.03761560	     -0.63024242	      9.96383171	     -5.08627831	     -4.47379816	      4.89381343	      0.08541316	      2.07436182	      0.15600007	     -7.49999987	      9.50986780	      0.33877144	     -3.84586405	      7.47015179	      0.13037874	      4.91530478	     -2.44853407	     -7.49999987	      3.74818458	     -1.14251809	     -0.69024454	     -6.77630520	    -11.50143957	     12.57754429	     23.65819540	     65.63572002	     -3.86854259	    -10.92239640	     20.48279689	     20.97724023	     71.84821518
      6.69000000	     -5.70245780	      1.56564653	     -1.17395178	     -0.27206713	      1.03742417	     -0.63096742	     10.15541907	     -5.10407787	     -4.43811218	      4.89367643	      0.08541077	      2.11887812	      0.10410704	     -7.49999987	      9.70511199	      0.35262435	     -3.83878539	      7.50142190	      0.13092451	      4.96780929	     -2.46113509	     -7.49999987	      3.93332840	     -1.11363046	     -0.70169176	     -6.93553493	    -11.58964195	     12.44972084	     23.98578359	     65.50426418	     -4.01134773	    -10.95587680	     20.29852352	     21.29909807	     71.60221246
      6.70000000	     -5.81742164	      1.57772463	     -1.22566726	     -0.27198350	      1.03737749	     -0.63122147	     10.28298826	     -5.11504563	     -4.39400407	      4.88912263	      0.08533129	      2.13213811	      0.07325626	     -7.49999987	      9.81753970	      0.36729631	     -3.79208906	      7.50159614	      0.13092755	      5.00948242	     -2.44002802	     -7.49999987	      4.06964002	     -1.08237825	     -0.68930929	     -7.07144917	    -11.66060620	     12.34909935	     24.25074657	     65.39344998	     -4.16299538	    -10.96508397	     20.15618463	     21.56810278	     71.39609727
      6.71000000	     -5.29877583	      1.55845560	     -1.26854863	     -0.27216922	      1.03818429	     -0.63119232	      9.69512463	     -5.11350267	     -4.44313301	      4.80646589	      0.08388866	      2.07301455	      0.21821315	     -7.49999987	      9.18233862	      0.37294969	     -3.75281894	      7.34098323	      0.12812433	      4.96750445	     -2.29420710	     -7.49999987	      3.37118173	     -1.04320321	     -0.60560871	     -6.72667886	    -11.60535499	     12.51491174	     23.73376706	     65.38866199	     -3.82854575	    -10.83639503	     20.34553164	     21.20073937	     71.48096544
      6.72000000	     -5.26826958	      1.55786162	     -1.33506004	     -0.27240560	      1.03827453	     -0.63078478	      9.68603049	     -5.11009416	     -4.43111149	      4.82064459	      0.08413612	      2.08132905	      0.27820516	     -7.49999987	      9.13698710	      0.37174812	     -3.78590117	      7.32571891	      0.12785792	      5.01936786	     -2.19315113	     -7.49999987	      3.32605025	     -1.02158807	     -0.55638331	     -6.63600271	    -11.64896903	     12.74831388	     23.57543133	     65.40784046	     -3.75860401	    -10.80821066	     20.56050595	     21.05034710	     71.62762260
      6.73000000	     -5.19725514	      1.55297133	     -1.37486880	     -0.27293867	      1.03815631	     -0.62993123	      9.62662693	     -5.09531792	     -4.37795800	      4.81851255	      0.08409891	      2.01989976	      0.18147404	     -7.49999987	      9.06143779	      0.36248997	     -3.81582388	      7.32146911	      0.12778374	      5.04605101	     -2.10488376	     -7.49999987	      3.15763646	     -0.99823695	     -0.53062019	     -6.69899009	    -11.68814112	     12.69275686	     23.78411133	     65.15126057	     -3.83493673	    -10.82282046	     20.43499277	     21.33012431	     71.19917882
      6.74000000	     -5.16627242	      1.54372502	     -1.39919651	     -0.27372009	      1.03780793	     -0.62918264	      9.63889432	     -5.08393356	     -4.39244426	      4.86297181	      0.08487487	      2.10676452	      0.29713346	     -7.49999987	      9.05514650	      0.34963916	     -3.81162792	      7.34800623	      0.12824690	      5.11002340	     -2.04156693	     -7.49999987	      3.07905501	     -0.98117801	     -0.51152464	     -6.61025631	    -11.71820443	     12.91876448	     23.62961556	     65.16176857	     -3.71243095	    -10.80062340	     20.60053047	     21.12167955	     71.29789570
      6.75000000	     -5.15626777	      1.52364344	     -1.41450422	     -0.27459058	      1.03742597	     -0.62913150	      9.67401318	     -5.06431583	     -4.42978078	      4.88428271	      0.08524681	      2.12397428	      0.33168956	     -7.49999987	      9.09262699	      0.32041338	     -3.81825621	      7.39475723	      0.12906286	      5.12983545	     -1.98571671	     -7.49999987	      2.99676449	     -0.95087945	     -0.49437456	     -6.61590669	    -11.74502455	     13.07892526	     23.69671312	     65.11579946	     -3.69782729	    -10.80477444	     20.68393722	     21.16428109	     71.32197334
      6.76000000	     -5.10629524	      1.50838990	     -1.44437276	     -0.27564934	      1.03684032	     -0.62945885	      9.68684504	     -5.04819809	     -4.43581312	      4.91690931	      0.08581626	      2.18596164	      0.35521752	     -7.49999987	      9.10370492	      0.29356683	     -3.81181803	      7.45620346	      0.13013530	      5.19976855	     -1.89129605	     -7.49999987	      2.83489262	     -0.93719454	     -0.47343273	     -6.60469899	    -11.79009512	     13.10939198	     23.83164032	     64.98589572	     -3.70595103	    -10.84963743	     20.66116172	     21.31210256	     71.16261803
      6.77000000	     -5.19699964	      1.49703668	     -1.45661002	     -0.27685900	      1.03570328	     -0.62973411	      9.88980300	     -5.04324904	     -4.48927024	      5.01775382	      0.08757633	      2.23169209	      0.39692374	     -7.49999987	      9.30644025	      0.26623317	     -3.81315779	      7.57951332	      0.13228746	      5.30055800	     -1.79783340	     -7.49999987	      2.87652072	     -0.92018697	     -0.42811418	     -6.52895759	    -11.84700998	     13.59569327	     23.74090126	     65.08893293	     -3.55456401	    -10.88263891	     21.08378711	     21.10767017	     71.69797496
      6.78000000	     -5.04534341	      1.49630554	     -1.48199462	     -0.27812718	      1.03481831	     -0.63000527	      9.83265602	     -5.05448900	     -4.50786599	      5.09158721	      0.08886496	      2.35497525	      0.47421814	     -7.49999987	      9.24623821	      0.25976999	     -3.83672387	      7.69221134	      0.13425441	      5.36221162	     -1.73824676	     -7.49999987	      2.49297019	     -0.90544265	     -0.46505706	     -6.55088912	    -11.86471623	     13.27238550	     24.11397394	     64.60916434	     -3.66740809	    -10.94858255	     20.74714200	     21.69468880	     70.81759124
      6.79000000	     -5.17736753	      1.50566261	     -1.50049283	     -0.27872792	      1.03402905	     -0.63017258	     10.11863867	     -5.07394900	     -4.49127499	      5.25065161	      0.09164116	      2.42957856	      0.47185570	     -7.49999987	      9.52219506	      0.25482232	     -3.86049045	      7.88054448	      0.13754145	      5.52397161	     -1.61507533	     -7.49999987	      2.58925277	     -0.90309619	     -0.40547294	     -6.48034287	    -11.90880196	     13.71551557	     23.92950805	     64.75647380	     -3.43327595	    -10.93198989	     21.14804822	     21.30582092	     71.26801309
      6.80000000	     -5.08134742	      1.50874922	     -1.50761105	     -0.27838518	      1.03418634	     -0.62982019	     10.10305108	     -5.08468617	     -4.47818714	      5.32513471	      0.09294113	      2.49106091	      0.44035316	     -7.49999987	      9.51104362	      0.25109497	     -3.85350109	      8.01336676	      0.13985963	      5.62981325	     -1.54241112	     -7.49999987	      2.29125771	     -0.90939870	     -0.39896374	     -6.55350141	    -11.91458412	     13.44970817	     24.29586722	     64.53341697	     -3.50557368	    -10.98484352	     20.78441834	     21.73783136	     70.86704197
      6.81000000	     -5.03533004	      1.50834797	     -1.52952259	     -0.27775465	      1.03463117	     -0.62924694	     10.15755240	     -5.09016888	     -4.47107237	      5.44267080	      0.09499253	      2.58865199	      0.51187432	     -7.49999987	      9.54148698	      0.24064537	     -3.87938585	      8.14483645	      0.14215421	      5.77977820	     -1.41938969	     -7.49999987	      2.10411675	     -0.90360256	     -0.40102345	     -6.57374795	    -11.92870523	     13.36222372	     24.44475625	     64.41607992	     -3.51297138	    -11.01176420	     20.66774516	     21.92992222	     70.64892930
